<svg xmlns="http://www.w3.org/2000/svg" viewBox="0 0 64 64" role="img" aria-label="Cybersecurity Research Hub">
  <rect width="64" height="64" rx="10" fill="#111312"/>
  <path d="M32 8 50 15v14c0 13.5-7.5 22.5-18 27-10.5-4.5-18-13.5-18-27V15l18-7Z" fill="#1f8f5f"/>
  <path d="M32 14 44 18.7v10.1c0 9.1-4.6 15.7-12 19.6-7.4-3.9-12-10.5-12-19.6V18.7L32 14Z" fill="#f7f7f2"/>
  <path d="M24 31.8c0-5 3.2-8.6 8-8.6 3.5 0 6.1 1.7 7.3 4.7l-4.3 1.8c-.6-1.5-1.6-2.3-3.1-2.3-2.1 0-3.4 1.7-3.4 4.4s1.3 4.4 3.4 4.4c1.6 0 2.7-.9 3.3-2.5l4.3 1.8c-1.3 3.2-4 4.9-7.6 4.9-4.8 0-7.9-3.6-7.9-8.6Z" fill="#111312"/>
</svg>
